<?xml version="1.0" encoding="utf-8" standalone="no"?>
<!DOCTYPE svg PUBLIC "-//W3C//DTD SVG 1.1//EN"
  "http://www.w3.org/Graphics/SVG/1.1/DTD/svg11.dtd">
<svg xmlns:xlink="http://www.w3.org/1999/xlink" width="864pt" height="288pt" viewBox="0 0 864 288" xmlns="http://www.w3.org/2000/svg" version="1.1">
 <metadata>
  <rdf:RDF xmlns:dc="http://purl.org/dc/elements/1.1/" xmlns:cc="http://creativecommons.org/ns#" xmlns:rdf="http://www.w3.org/1999/02/22-rdf-syntax-ns#">
   <cc:Work>
    <dc:type rdf:resource="http://purl.org/dc/dcmitype/StillImage"/>
    <dc:date>2023-12-16T17:03:03.358439</dc:date>
    <dc:format>image/svg+xml</dc:format>
    <dc:creator>
     <cc:Agent>
      <dc:title>Matplotlib v3.8.2, https://matplotlib.org/</dc:title>
     </cc:Agent>
    </dc:creator>
   </cc:Work>
  </rdf:RDF>
 </metadata>
 <defs>
  <style type="text/css">*{stroke-linejoin: round; stroke-linecap: butt}</style>
 </defs>
 <g id="figure_1">
  <g id="patch_1">
   <path d="M 0 288 
L 864 288 
L 864 0 
L 0 0 
z
" style="fill: #ffffff"/>
  </g>
  <g id="axes_1">
   <g id="patch_2">
    <path d="M 58.116583 259.707538 
L 295.026466 259.707538 
L 295.026466 27.654271 
L 58.116583 27.654271 
z
" style="fill: #ffffff"/>
   </g>
   <g id="patch_3">
    <path d="M 68.885214 259.707538 
L 87.613268 259.707538 
L 87.613268 38.704427 
L 68.885214 38.704427 
z
" clip-path="url(#p9aeab121c9)" style="fill: #10a37f"/>
   </g>
   <g id="patch_4">
    <path d="M 115.705349 259.707538 
L 134.433403 259.707538 
L 134.433403 84.320267 
L 115.705349 84.320267 
z
" clip-path="url(#p9aeab121c9)" style="fill: #10a37f"/>
   </g>
   <g id="patch_5">
    <path d="M 162.525484 259.707538 
L 181.253538 259.707538 
L 181.253538 66.62521 
L 162.525484 66.62521 
z
" clip-path="url(#p9aeab121c9)" style="fill: #10a37f"/>
   </g>
   <g id="patch_6">
    <path d="M 209.345619 259.707538 
L 228.073673 259.707538 
L 228.073673 139.837727 
L 209.345619 139.837727 
z
" clip-path="url(#p9aeab121c9)" style="fill: #10a37f"/>
   </g>
   <g id="patch_7">
    <path d="M 256.165754 259.707538 
L 274.893808 259.707538 
L 274.893808 129.989629 
L 256.165754 129.989629 
z
" clip-path="url(#p9aeab121c9)" style="fill: #10a37f"/>
   </g>
   <g id="patch_8">
    <path d="M 78.249241 259.707538 
L 96.977295 259.707538 
L 96.977295 194.127148 
L 78.249241 194.127148 
z
" clip-path="url(#p9aeab121c9)" style="fill: #147960"/>
   </g>
   <g id="patch_9">
    <path d="M 125.069376 259.707538 
L 143.79743 259.707538 
L 143.79743 226.459802 
L 125.069376 226.459802 
z
" clip-path="url(#p9aeab121c9)" style="fill: #147960"/>
   </g>
   <g id="patch_10">
    <path d="M 171.889511 259.707538 
L 190.617565 259.707538 
L 190.617565 206.145127 
L 171.889511 206.145127 
z
" clip-path="url(#p9aeab121c9)" style="fill: #147960"/>
   </g>
   <g id="patch_11">
    <path d="M 218.709646 259.707538 
L 237.4377 259.707538 
L 237.4377 256.995743 
L 218.709646 256.995743 
z
" clip-path="url(#p9aeab121c9)" style="fill: #147960"/>
   </g>
   <g id="patch_12">
    <path d="M 265.529781 259.707538 
L 284.257835 259.707538 
L 284.257835 246.252634 
L 265.529781 246.252634 
z
" clip-path="url(#p9aeab121c9)" style="fill: #147960"/>
   </g>
   <g id="matplotlib.axis_1">
    <g id="xtick_1">
     <g id="line2d_1">
      <defs>
       <path id="m679d4df1f5" d="M 0 0 
L 0 3.5 
" style="stroke: #000000; stroke-width: 0.8"/>
      </defs>
      <g>
       <use xlink:href="#m679d4df1f5" x="78.249241" y="259.707538" style="stroke: #000000; stroke-width: 0.8"/>
      </g>
     </g>
     <g id="text_1">
      <!-- female -->
      <g transform="translate(59.28885 275.065819) scale(0.11 -0.11)">
       <defs>
        <path id="DejaVuSans-66" d="M 2375 4863 
L 2375 4384 
L 1825 4384 
Q 1516 4384 1395 4259 
Q 1275 4134 1275 3809 
L 1275 3500 
L 2222 3500 
L 2222 3053 
L 1275 3053 
L 1275 0 
L 697 0 
L 697 3053 
L 147 3053 
L 147 3500 
L 697 3500 
L 697 3744 
Q 697 4328 969 4595 
Q 1241 4863 1831 4863 
L 2375 4863 
z
" transform="scale(0.015625)"/>
        <path id="DejaVuSans-65" d="M 3597 1894 
L 3597 1613 
L 953 1613 
Q 991 1019 1311 708 
Q 1631 397 2203 397 
Q 2534 397 2845 478 
Q 3156 559 3463 722 
L 3463 178 
Q 3153 47 2828 -22 
Q 2503 -91 2169 -91 
Q 1331 -91 842 396 
Q 353 884 353 1716 
Q 353 2575 817 3079 
Q 1281 3584 2069 3584 
Q 2775 3584 3186 3129 
Q 3597 2675 3597 1894 
z
M 3022 2063 
Q 3016 2534 2758 2815 
Q 2500 3097 2075 3097 
Q 1594 3097 1305 2825 
Q 1016 2553 972 2059 
L 3022 2063 
z
" transform="scale(0.015625)"/>
        <path id="DejaVuSans-6d" d="M 3328 2828 
Q 3544 3216 3844 3400 
Q 4144 3584 4550 3584 
Q 5097 3584 5394 3201 
Q 5691 2819 5691 2113 
L 5691 0 
L 5113 0 
L 5113 2094 
Q 5113 2597 4934 2840 
Q 4756 3084 4391 3084 
Q 3944 3084 3684 2787 
Q 3425 2491 3425 1978 
L 3425 0 
L 2847 0 
L 2847 2094 
Q 2847 2600 2669 2842 
Q 2491 3084 2119 3084 
Q 1678 3084 1418 2786 
Q 1159 2488 1159 1978 
L 1159 0 
L 581 0 
L 581 3500 
L 1159 3500 
L 1159 2956 
Q 1356 3278 1631 3431 
Q 1906 3584 2284 3584 
Q 2666 3584 2933 3390 
Q 3200 3197 3328 2828 
z
" transform="scale(0.015625)"/>
        <path id="DejaVuSans-61" d="M 2194 1759 
Q 1497 1759 1228 1600 
Q 959 1441 959 1056 
Q 959 750 1161 570 
Q 1363 391 1709 391 
Q 2188 391 2477 730 
Q 2766 1069 2766 1631 
L 2766 1759 
L 2194 1759 
z
M 3341 1997 
L 3341 0 
L 2766 0 
L 2766 531 
Q 2569 213 2275 61 
Q 1981 -91 1556 -91 
Q 1019 -91 701 211 
Q 384 513 384 1019 
Q 384 1609 779 1909 
Q 1175 2209 1959 2209 
L 2766 2209 
L 2766 2266 
Q 2766 2663 2505 2880 
Q 2244 3097 1772 3097 
Q 1472 3097 1187 3025 
Q 903 2953 641 2809 
L 641 3341 
Q 956 3463 1253 3523 
Q 1550 3584 1831 3584 
Q 2591 3584 2966 3190 
Q 3341 2797 3341 1997 
z
" transform="scale(0.015625)"/>
        <path id="DejaVuSans-6c" d="M 603 4863 
L 1178 4863 
L 1178 0 
L 603 0 
L 603 4863 
z
" transform="scale(0.015625)"/>
       </defs>
       <use xlink:href="#DejaVuSans-66"/>
       <use xlink:href="#DejaVuSans-65" x="35.205078"/>
       <use xlink:href="#DejaVuSans-6d" x="96.728516"/>
       <use xlink:href="#DejaVuSans-61" x="194.140625"/>
       <use xlink:href="#DejaVuSans-6c" x="255.419922"/>
       <use xlink:href="#DejaVuSans-65" x="283.203125"/>
      </g>
     </g>
    </g>
    <g id="xtick_2">
     <g id="line2d_2">
      <g>
       <use xlink:href="#m679d4df1f5" x="125.069376" y="259.707538" style="stroke: #000000; stroke-width: 0.8"/>
      </g>
     </g>
     <g id="text_2">
      <!-- black -->
      <g transform="translate(110.470313 275.065819) scale(0.11 -0.11)">
       <defs>
        <path id="DejaVuSans-62" d="M 3116 1747 
Q 3116 2381 2855 2742 
Q 2594 3103 2138 3103 
Q 1681 3103 1420 2742 
Q 1159 2381 1159 1747 
Q 1159 1113 1420 752 
Q 1681 391 2138 391 
Q 2594 391 2855 752 
Q 3116 1113 3116 1747 
z
M 1159 2969 
Q 1341 3281 1617 3432 
Q 1894 3584 2278 3584 
Q 2916 3584 3314 3078 
Q 3713 2572 3713 1747 
Q 3713 922 3314 415 
Q 2916 -91 2278 -91 
Q 1894 -91 1617 61 
Q 1341 213 1159 525 
L 1159 0 
L 581 0 
L 581 4863 
L 1159 4863 
L 1159 2969 
z
" transform="scale(0.015625)"/>
        <path id="DejaVuSans-63" d="M 3122 3366 
L 3122 2828 
Q 2878 2963 2633 3030 
Q 2388 3097 2138 3097 
Q 1578 3097 1268 2742 
Q 959 2388 959 1747 
Q 959 1106 1268 751 
Q 1578 397 2138 397 
Q 2388 397 2633 464 
Q 2878 531 3122 666 
L 3122 134 
Q 2881 22 2623 -34 
Q 2366 -91 2075 -91 
Q 1284 -91 818 406 
Q 353 903 353 1747 
Q 353 2603 823 3093 
Q 1294 3584 2113 3584 
Q 2378 3584 2631 3529 
Q 2884 3475 3122 3366 
z
" transform="scale(0.015625)"/>
        <path id="DejaVuSans-6b" d="M 581 4863 
L 1159 4863 
L 1159 1991 
L 2875 3500 
L 3609 3500 
L 1753 1863 
L 3688 0 
L 2938 0 
L 1159 1709 
L 1159 0 
L 581 0 
L 581 4863 
z
" transform="scale(0.015625)"/>
       </defs>
       <use xlink:href="#DejaVuSans-62"/>
       <use xlink:href="#DejaVuSans-6c" x="63.476562"/>
       <use xlink:href="#DejaVuSans-61" x="91.259766"/>
       <use xlink:href="#DejaVuSans-63" x="152.539062"/>
       <use xlink:href="#DejaVuSans-6b" x="207.519531"/>
      </g>
     </g>
    </g>
    <g id="xtick_3">
     <g id="line2d_3">
      <g>
       <use xlink:href="#m679d4df1f5" x="171.889511" y="259.707538" style="stroke: #000000; stroke-width: 0.8"/>
      </g>
     </g>
     <g id="text_3">
      <!-- gay -->
      <g transform="translate(161.772089 275.065819) scale(0.11 -0.11)">
       <defs>
        <path id="DejaVuSans-67" d="M 2906 1791 
Q 2906 2416 2648 2759 
Q 2391 3103 1925 3103 
Q 1463 3103 1205 2759 
Q 947 2416 947 1791 
Q 947 1169 1205 825 
Q 1463 481 1925 481 
Q 2391 481 2648 825 
Q 2906 1169 2906 1791 
z
M 3481 434 
Q 3481 -459 3084 -895 
Q 2688 -1331 1869 -1331 
Q 1566 -1331 1297 -1286 
Q 1028 -1241 775 -1147 
L 775 -588 
Q 1028 -725 1275 -790 
Q 1522 -856 1778 -856 
Q 2344 -856 2625 -561 
Q 2906 -266 2906 331 
L 2906 616 
Q 2728 306 2450 153 
Q 2172 0 1784 0 
Q 1141 0 747 490 
Q 353 981 353 1791 
Q 353 2603 747 3093 
Q 1141 3584 1784 3584 
Q 2172 3584 2450 3431 
Q 2728 3278 2906 2969 
L 2906 3500 
L 3481 3500 
L 3481 434 
z
" transform="scale(0.015625)"/>
        <path id="DejaVuSans-79" d="M 2059 -325 
Q 1816 -950 1584 -1140 
Q 1353 -1331 966 -1331 
L 506 -1331 
L 506 -850 
L 844 -850 
Q 1081 -850 1212 -737 
Q 1344 -625 1503 -206 
L 1606 56 
L 191 3500 
L 800 3500 
L 1894 763 
L 2988 3500 
L 3597 3500 
L 2059 -325 
z
" transform="scale(0.015625)"/>
       </defs>
       <use xlink:href="#DejaVuSans-67"/>
       <use xlink:href="#DejaVuSans-61" x="63.476562"/>
       <use xlink:href="#DejaVuSans-79" x="124.755859"/>
      </g>
     </g>
    </g>
    <g id="xtick_4">
     <g id="line2d_4">
      <g>
       <use xlink:href="#m679d4df1f5" x="218.709646" y="259.707538" style="stroke: #000000; stroke-width: 0.8"/>
      </g>
     </g>
     <g id="text_4">
      <!-- hispanic -->
      <g transform="translate(195.931052 275.065819) scale(0.11 -0.11)">
       <defs>
        <path id="DejaVuSans-68" d="M 3513 2113 
L 3513 0 
L 2938 0 
L 2938 2094 
Q 2938 2591 2744 2837 
Q 2550 3084 2163 3084 
Q 1697 3084 1428 2787 
Q 1159 2491 1159 1978 
L 1159 0 
L 581 0 
L 581 4863 
L 1159 4863 
L 1159 2956 
Q 1366 3272 1645 3428 
Q 1925 3584 2291 3584 
Q 2894 3584 3203 3211 
Q 3513 2838 3513 2113 
z
" transform="scale(0.015625)"/>
        <path id="DejaVuSans-69" d="M 603 3500 
L 1178 3500 
L 1178 0 
L 603 0 
L 603 3500 
z
M 603 4863 
L 1178 4863 
L 1178 4134 
L 603 4134 
L 603 4863 
z
" transform="scale(0.015625)"/>
        <path id="DejaVuSans-73" d="M 2834 3397 
L 2834 2853 
Q 2591 2978 2328 3040 
Q 2066 3103 1784 3103 
Q 1356 3103 1142 2972 
Q 928 2841 928 2578 
Q 928 2378 1081 2264 
Q 1234 2150 1697 2047 
L 1894 2003 
Q 2506 1872 2764 1633 
Q 3022 1394 3022 966 
Q 3022 478 2636 193 
Q 2250 -91 1575 -91 
Q 1294 -91 989 -36 
Q 684 19 347 128 
L 347 722 
Q 666 556 975 473 
Q 1284 391 1588 391 
Q 1994 391 2212 530 
Q 2431 669 2431 922 
Q 2431 1156 2273 1281 
Q 2116 1406 1581 1522 
L 1381 1569 
Q 847 1681 609 1914 
Q 372 2147 372 2553 
Q 372 3047 722 3315 
Q 1072 3584 1716 3584 
Q 2034 3584 2315 3537 
Q 2597 3491 2834 3397 
z
" transform="scale(0.015625)"/>
        <path id="DejaVuSans-70" d="M 1159 525 
L 1159 -1331 
L 581 -1331 
L 581 3500 
L 1159 3500 
L 1159 2969 
Q 1341 3281 1617 3432 
Q 1894 3584 2278 3584 
Q 2916 3584 3314 3078 
Q 3713 2572 3713 1747 
Q 3713 922 3314 415 
Q 2916 -91 2278 -91 
Q 1894 -91 1617 61 
Q 1341 213 1159 525 
z
M 3116 1747 
Q 3116 2381 2855 2742 
Q 2594 3103 2138 3103 
Q 1681 3103 1420 2742 
Q 1159 2381 1159 1747 
Q 1159 1113 1420 752 
Q 1681 391 2138 391 
Q 2594 391 2855 752 
Q 3116 1113 3116 1747 
z
" transform="scale(0.015625)"/>
        <path id="DejaVuSans-6e" d="M 3513 2113 
L 3513 0 
L 2938 0 
L 2938 2094 
Q 2938 2591 2744 2837 
Q 2550 3084 2163 3084 
Q 1697 3084 1428 2787 
Q 1159 2491 1159 1978 
L 1159 0 
L 581 0 
L 581 3500 
L 1159 3500 
L 1159 2956 
Q 1366 3272 1645 3428 
Q 1925 3584 2291 3584 
Q 2894 3584 3203 3211 
Q 3513 2838 3513 2113 
z
" transform="scale(0.015625)"/>
       </defs>
       <use xlink:href="#DejaVuSans-68"/>
       <use xlink:href="#DejaVuSans-69" x="63.378906"/>
       <use xlink:href="#DejaVuSans-73" x="91.162109"/>
       <use xlink:href="#DejaVuSans-70" x="143.261719"/>
       <use xlink:href="#DejaVuSans-61" x="206.738281"/>
       <use xlink:href="#DejaVuSans-6e" x="268.017578"/>
       <use xlink:href="#DejaVuSans-69" x="331.396484"/>
       <use xlink:href="#DejaVuSans-63" x="359.179688"/>
      </g>
     </g>
    </g>
    <g id="xtick_5">
     <g id="line2d_5">
      <g>
       <use xlink:href="#m679d4df1f5" x="265.529781" y="259.707538" style="stroke: #000000; stroke-width: 0.8"/>
      </g>
     </g>
     <g id="text_5">
      <!-- african -->
      <g transform="translate(246.553921 275.065819) scale(0.11 -0.11)">
       <defs>
        <path id="DejaVuSans-72" d="M 2631 2963 
Q 2534 3019 2420 3045 
Q 2306 3072 2169 3072 
Q 1681 3072 1420 2755 
Q 1159 2438 1159 1844 
L 1159 0 
L 581 0 
L 581 3500 
L 1159 3500 
L 1159 2956 
Q 1341 3275 1631 3429 
Q 1922 3584 2338 3584 
Q 2397 3584 2469 3576 
Q 2541 3569 2628 3553 
L 2631 2963 
z
" transform="scale(0.015625)"/>
       </defs>
       <use xlink:href="#DejaVuSans-61"/>
       <use xlink:href="#DejaVuSans-66" x="61.279297"/>
       <use xlink:href="#DejaVuSans-72" x="96.484375"/>
       <use xlink:href="#DejaVuSans-69" x="137.597656"/>
       <use xlink:href="#DejaVuSans-63" x="165.380859"/>
       <use xlink:href="#DejaVuSans-61" x="220.361328"/>
       <use xlink:href="#DejaVuSans-6e" x="281.640625"/>
      </g>
     </g>
    </g>
   </g>
   <g id="matplotlib.axis_2">
    <g id="ytick_1">
     <g id="line2d_6">
      <defs>
       <path id="ma054d9dd97" d="M 0 0 
L -3.5 0 
" style="stroke: #000000; stroke-width: 0.8"/>
      </defs>
      <g>
       <use xlink:href="#ma054d9dd97" x="58.116583" y="259.707538" style="stroke: #000000; stroke-width: 0.8"/>
      </g>
     </g>
     <g id="text_6">
      <!-- 0.00 -->
      <g transform="translate(26.624395 263.886678) scale(0.11 -0.11)">
       <defs>
        <path id="DejaVuSans-30" d="M 2034 4250 
Q 1547 4250 1301 3770 
Q 1056 3291 1056 2328 
Q 1056 1369 1301 889 
Q 1547 409 2034 409 
Q 2525 409 2770 889 
Q 3016 1369 3016 2328 
Q 3016 3291 2770 3770 
Q 2525 4250 2034 4250 
z
M 2034 4750 
Q 2819 4750 3233 4129 
Q 3647 3509 3647 2328 
Q 3647 1150 3233 529 
Q 2819 -91 2034 -91 
Q 1250 -91 836 529 
Q 422 1150 422 2328 
Q 422 3509 836 4129 
Q 1250 4750 2034 4750 
z
" transform="scale(0.015625)"/>
        <path id="DejaVuSans-2e" d="M 684 794 
L 1344 794 
L 1344 0 
L 684 0 
L 684 794 
z
" transform="scale(0.015625)"/>
       </defs>
       <use xlink:href="#DejaVuSans-30"/>
       <use xlink:href="#DejaVuSans-2e" x="63.623047"/>
       <use xlink:href="#DejaVuSans-30" x="95.410156"/>
       <use xlink:href="#DejaVuSans-30" x="159.033203"/>
      </g>
     </g>
    </g>
    <g id="ytick_2">
     <g id="line2d_7">
      <g>
       <use xlink:href="#ma054d9dd97" x="58.116583" y="222.539296" style="stroke: #000000; stroke-width: 0.8"/>
      </g>
     </g>
     <g id="text_7">
      <!-- 0.05 -->
      <g transform="translate(26.624395 226.718436) scale(0.11 -0.11)">
       <defs>
        <path id="DejaVuSans-35" d="M 691 4666 
L 3169 4666 
L 3169 4134 
L 1269 4134 
L 1269 2991 
Q 1406 3038 1543 3061 
Q 1681 3084 1819 3084 
Q 2600 3084 3056 2656 
Q 3513 2228 3513 1497 
Q 3513 744 3044 326 
Q 2575 -91 1722 -91 
Q 1428 -91 1123 -41 
Q 819 9 494 109 
L 494 744 
Q 775 591 1075 516 
Q 1375 441 1709 441 
Q 2250 441 2565 725 
Q 2881 1009 2881 1497 
Q 2881 1984 2565 2268 
Q 2250 2553 1709 2553 
Q 1456 2553 1204 2497 
Q 953 2441 691 2322 
L 691 4666 
z
" transform="scale(0.015625)"/>
       </defs>
       <use xlink:href="#DejaVuSans-30"/>
       <use xlink:href="#DejaVuSans-2e" x="63.623047"/>
       <use xlink:href="#DejaVuSans-30" x="95.410156"/>
       <use xlink:href="#DejaVuSans-35" x="159.033203"/>
      </g>
     </g>
    </g>
    <g id="ytick_3">
     <g id="line2d_8">
      <g>
       <use xlink:href="#ma054d9dd97" x="58.116583" y="185.371054" style="stroke: #000000; stroke-width: 0.8"/>
      </g>
     </g>
     <g id="text_8">
      <!-- 0.10 -->
      <g transform="translate(26.624395 189.550194) scale(0.11 -0.11)">
       <defs>
        <path id="DejaVuSans-31" d="M 794 531 
L 1825 531 
L 1825 4091 
L 703 3866 
L 703 4441 
L 1819 4666 
L 2450 4666 
L 2450 531 
L 3481 531 
L 3481 0 
L 794 0 
L 794 531 
z
" transform="scale(0.015625)"/>
       </defs>
       <use xlink:href="#DejaVuSans-30"/>
       <use xlink:href="#DejaVuSans-2e" x="63.623047"/>
       <use xlink:href="#DejaVuSans-31" x="95.410156"/>
       <use xlink:href="#DejaVuSans-30" x="159.033203"/>
      </g>
     </g>
    </g>
    <g id="ytick_4">
     <g id="line2d_9">
      <g>
       <use xlink:href="#ma054d9dd97" x="58.116583" y="148.202811" style="stroke: #000000; stroke-width: 0.8"/>
      </g>
     </g>
     <g id="text_9">
      <!-- 0.15 -->
      <g transform="translate(26.624395 152.381952) scale(0.11 -0.11)">
       <use xlink:href="#DejaVuSans-30"/>
       <use xlink:href="#DejaVuSans-2e" x="63.623047"/>
       <use xlink:href="#DejaVuSans-31" x="95.410156"/>
       <use xlink:href="#DejaVuSans-35" x="159.033203"/>
      </g>
     </g>
    </g>
    <g id="ytick_5">
     <g id="line2d_10">
      <g>
       <use xlink:href="#ma054d9dd97" x="58.116583" y="111.034569" style="stroke: #000000; stroke-width: 0.8"/>
      </g>
     </g>
     <g id="text_10">
      <!-- 0.20 -->
      <g transform="translate(26.624395 115.21371) scale(0.11 -0.11)">
       <defs>
        <path id="DejaVuSans-32" d="M 1228 531 
L 3431 531 
L 3431 0 
L 469 0 
L 469 531 
Q 828 903 1448 1529 
Q 2069 2156 2228 2338 
Q 2531 2678 2651 2914 
Q 2772 3150 2772 3378 
Q 2772 3750 2511 3984 
Q 2250 4219 1831 4219 
Q 1534 4219 1204 4116 
Q 875 4013 500 3803 
L 500 4441 
Q 881 4594 1212 4672 
Q 1544 4750 1819 4750 
Q 2544 4750 2975 4387 
Q 3406 4025 3406 3419 
Q 3406 3131 3298 2873 
Q 3191 2616 2906 2266 
Q 2828 2175 2409 1742 
Q 1991 1309 1228 531 
z
" transform="scale(0.015625)"/>
       </defs>
       <use xlink:href="#DejaVuSans-30"/>
       <use xlink:href="#DejaVuSans-2e" x="63.623047"/>
       <use xlink:href="#DejaVuSans-32" x="95.410156"/>
       <use xlink:href="#DejaVuSans-30" x="159.033203"/>
      </g>
     </g>
    </g>
    <g id="ytick_6">
     <g id="line2d_11">
      <g>
       <use xlink:href="#ma054d9dd97" x="58.116583" y="73.866327" style="stroke: #000000; stroke-width: 0.8"/>
      </g>
     </g>
     <g id="text_11">
      <!-- 0.25 -->
      <g transform="translate(26.624395 78.045468) scale(0.11 -0.11)">
       <use xlink:href="#DejaVuSans-30"/>
       <use xlink:href="#DejaVuSans-2e" x="63.623047"/>
       <use xlink:href="#DejaVuSans-32" x="95.410156"/>
       <use xlink:href="#DejaVuSans-35" x="159.033203"/>
      </g>
     </g>
    </g>
    <g id="ytick_7">
     <g id="line2d_12">
      <g>
       <use xlink:href="#ma054d9dd97" x="58.116583" y="36.698085" style="stroke: #000000; stroke-width: 0.8"/>
      </g>
     </g>
     <g id="text_12">
      <!-- 0.30 -->
      <g transform="translate(26.624395 40.877226) scale(0.11 -0.11)">
       <defs>
        <path id="DejaVuSans-33" d="M 2597 2516 
Q 3050 2419 3304 2112 
Q 3559 1806 3559 1356 
Q 3559 666 3084 287 
Q 2609 -91 1734 -91 
Q 1441 -91 1130 -33 
Q 819 25 488 141 
L 488 750 
Q 750 597 1062 519 
Q 1375 441 1716 441 
Q 2309 441 2620 675 
Q 2931 909 2931 1356 
Q 2931 1769 2642 2001 
Q 2353 2234 1838 2234 
L 1294 2234 
L 1294 2753 
L 1863 2753 
Q 2328 2753 2575 2939 
Q 2822 3125 2822 3475 
Q 2822 3834 2567 4026 
Q 2313 4219 1838 4219 
Q 1578 4219 1281 4162 
Q 984 4106 628 3988 
L 628 4550 
Q 988 4650 1302 4700 
Q 1616 4750 1894 4750 
Q 2613 4750 3031 4423 
Q 3450 4097 3450 3541 
Q 3450 3153 3228 2886 
Q 3006 2619 2597 2516 
z
" transform="scale(0.015625)"/>
       </defs>
       <use xlink:href="#DejaVuSans-30"/>
       <use xlink:href="#DejaVuSans-2e" x="63.623047"/>
       <use xlink:href="#DejaVuSans-33" x="95.410156"/>
       <use xlink:href="#DejaVuSans-30" x="159.033203"/>
      </g>
     </g>
    </g>
    <g id="text_13">
     <!-- Scores -->
     <g transform="translate(20.12877 163.609342) rotate(-90) scale(0.12 -0.12)">
      <defs>
       <path id="DejaVuSans-53" d="M 3425 4513 
L 3425 3897 
Q 3066 4069 2747 4153 
Q 2428 4238 2131 4238 
Q 1616 4238 1336 4038 
Q 1056 3838 1056 3469 
Q 1056 3159 1242 3001 
Q 1428 2844 1947 2747 
L 2328 2669 
Q 3034 2534 3370 2195 
Q 3706 1856 3706 1288 
Q 3706 609 3251 259 
Q 2797 -91 1919 -91 
Q 1588 -91 1214 -16 
Q 841 59 441 206 
L 441 856 
Q 825 641 1194 531 
Q 1563 422 1919 422 
Q 2459 422 2753 634 
Q 3047 847 3047 1241 
Q 3047 1584 2836 1778 
Q 2625 1972 2144 2069 
L 1759 2144 
Q 1053 2284 737 2584 
Q 422 2884 422 3419 
Q 422 4038 858 4394 
Q 1294 4750 2059 4750 
Q 2388 4750 2728 4690 
Q 3069 4631 3425 4513 
z
" transform="scale(0.015625)"/>
       <path id="DejaVuSans-6f" d="M 1959 3097 
Q 1497 3097 1228 2736 
Q 959 2375 959 1747 
Q 959 1119 1226 758 
Q 1494 397 1959 397 
Q 2419 397 2687 759 
Q 2956 1122 2956 1747 
Q 2956 2369 2687 2733 
Q 2419 3097 1959 3097 
z
M 1959 3584 
Q 2709 3584 3137 3096 
Q 3566 2609 3566 1747 
Q 3566 888 3137 398 
Q 2709 -91 1959 -91 
Q 1206 -91 779 398 
Q 353 888 353 1747 
Q 353 2609 779 3096 
Q 1206 3584 1959 3584 
z
" transform="scale(0.015625)"/>
      </defs>
      <use xlink:href="#DejaVuSans-53"/>
      <use xlink:href="#DejaVuSans-63" x="63.476562"/>
      <use xlink:href="#DejaVuSans-6f" x="118.457031"/>
      <use xlink:href="#DejaVuSans-72" x="179.638672"/>
      <use xlink:href="#DejaVuSans-65" x="218.501953"/>
      <use xlink:href="#DejaVuSans-73" x="280.025391"/>
     </g>
    </g>
   </g>
   <g id="patch_13">
    <path d="M 58.116583 259.707538 
L 58.116583 27.654271 
" style="fill: none; stroke: #000000; stroke-width: 0.8; stroke-linejoin: miter; stroke-linecap: square"/>
   </g>
   <g id="patch_14">
    <path d="M 295.026466 259.707538 
L 295.026466 27.654271 
" style="fill: none; stroke: #000000; stroke-width: 0.8; stroke-linejoin: miter; stroke-linecap: square"/>
   </g>
   <g id="patch_15">
    <path d="M 58.116583 259.707538 
L 295.026466 259.707538 
" style="fill: none; stroke: #000000; stroke-width: 0.8; stroke-linejoin: miter; stroke-linecap: square"/>
   </g>
   <g id="patch_16">
    <path d="M 58.116583 27.654271 
L 295.026466 27.654271 
" style="fill: none; stroke: #000000; stroke-width: 0.8; stroke-linejoin: miter; stroke-linecap: square"/>
   </g>
   <g id="text_14">
    <!-- Logistic Regression -->
    <g transform="translate(109.428399 21.654271) scale(0.14 -0.14)">
     <defs>
      <path id="DejaVuSans-4c" d="M 628 4666 
L 1259 4666 
L 1259 531 
L 3531 531 
L 3531 0 
L 628 0 
L 628 4666 
z
" transform="scale(0.015625)"/>
      <path id="DejaVuSans-74" d="M 1172 4494 
L 1172 3500 
L 2356 3500 
L 2356 3053 
L 1172 3053 
L 1172 1153 
Q 1172 725 1289 603 
Q 1406 481 1766 481 
L 2356 481 
L 2356 0 
L 1766 0 
Q 1100 0 847 248 
Q 594 497 594 1153 
L 594 3053 
L 172 3053 
L 172 3500 
L 594 3500 
L 594 4494 
L 1172 4494 
z
" transform="scale(0.015625)"/>
      <path id="DejaVuSans-20" transform="scale(0.015625)"/>
      <path id="DejaVuSans-52" d="M 2841 2188 
Q 3044 2119 3236 1894 
Q 3428 1669 3622 1275 
L 4263 0 
L 3584 0 
L 2988 1197 
Q 2756 1666 2539 1819 
Q 2322 1972 1947 1972 
L 1259 1972 
L 1259 0 
L 628 0 
L 628 4666 
L 2053 4666 
Q 2853 4666 3247 4331 
Q 3641 3997 3641 3322 
Q 3641 2881 3436 2590 
Q 3231 2300 2841 2188 
z
M 1259 4147 
L 1259 2491 
L 2053 2491 
Q 2509 2491 2742 2702 
Q 2975 2913 2975 3322 
Q 2975 3731 2742 3939 
Q 2509 4147 2053 4147 
L 1259 4147 
z
" transform="scale(0.015625)"/>
     </defs>
     <use xlink:href="#DejaVuSans-4c"/>
     <use xlink:href="#DejaVuSans-6f" x="53.962891"/>
     <use xlink:href="#DejaVuSans-67" x="115.144531"/>
     <use xlink:href="#DejaVuSans-69" x="178.621094"/>
     <use xlink:href="#DejaVuSans-73" x="206.404297"/>
     <use xlink:href="#DejaVuSans-74" x="258.503906"/>
     <use xlink:href="#DejaVuSans-69" x="297.712891"/>
     <use xlink:href="#DejaVuSans-63" x="325.496094"/>
     <use xlink:href="#DejaVuSans-20" x="380.476562"/>
     <use xlink:href="#DejaVuSans-52" x="412.263672"/>
     <use xlink:href="#DejaVuSans-65" x="477.246094"/>
     <use xlink:href="#DejaVuSans-67" x="538.769531"/>
     <use xlink:href="#DejaVuSans-72" x="602.246094"/>
     <use xlink:href="#DejaVuSans-65" x="641.109375"/>
     <use xlink:href="#DejaVuSans-73" x="702.632812"/>
     <use xlink:href="#DejaVuSans-73" x="754.732422"/>
     <use xlink:href="#DejaVuSans-69" x="806.832031"/>
     <use xlink:href="#DejaVuSans-6f" x="834.615234"/>
     <use xlink:href="#DejaVuSans-6e" x="895.796875"/>
    </g>
   </g>
   <g id="legend_1">
    <g id="patch_17">
     <path d="M 174.485372 68.746146 
L 287.326466 68.746146 
Q 289.526466 68.746146 289.526466 66.546146 
L 289.526466 35.354271 
Q 289.526466 33.154271 287.326466 33.154271 
L 174.485372 33.154271 
Q 172.285372 33.154271 172.285372 35.354271 
L 172.285372 66.546146 
Q 172.285372 68.746146 174.485372 68.746146 
z
" style="fill: #ffffff; opacity: 0.8; stroke: #cccccc; stroke-linejoin: miter"/>
    </g>
    <g id="patch_18">
     <path d="M 176.685372 45.912553 
L 198.685372 45.912553 
L 198.685372 38.212553 
L 176.685372 38.212553 
z
" style="fill: #10a37f"/>
    </g>
    <g id="text_15">
     <!-- LR Predictions -->
     <g transform="translate(207.485372 45.912553) scale(0.11 -0.11)">
      <defs>
       <path id="DejaVuSans-50" d="M 1259 4147 
L 1259 2394 
L 2053 2394 
Q 2494 2394 2734 2622 
Q 2975 2850 2975 3272 
Q 2975 3691 2734 3919 
Q 2494 4147 2053 4147 
L 1259 4147 
z
M 628 4666 
L 2053 4666 
Q 2838 4666 3239 4311 
Q 3641 3956 3641 3272 
Q 3641 2581 3239 2228 
Q 2838 1875 2053 1875 
L 1259 1875 
L 1259 0 
L 628 0 
L 628 4666 
z
" transform="scale(0.015625)"/>
       <path id="DejaVuSans-64" d="M 2906 2969 
L 2906 4863 
L 3481 4863 
L 3481 0 
L 2906 0 
L 2906 525 
Q 2725 213 2448 61 
Q 2172 -91 1784 -91 
Q 1150 -91 751 415 
Q 353 922 353 1747 
Q 353 2572 751 3078 
Q 1150 3584 1784 3584 
Q 2172 3584 2448 3432 
Q 2725 3281 2906 2969 
z
M 947 1747 
Q 947 1113 1208 752 
Q 1469 391 1925 391 
Q 2381 391 2643 752 
Q 2906 1113 2906 1747 
Q 2906 2381 2643 2742 
Q 2381 3103 1925 3103 
Q 1469 3103 1208 2742 
Q 947 2381 947 1747 
z
" transform="scale(0.015625)"/>
      </defs>
      <use xlink:href="#DejaVuSans-4c"/>
      <use xlink:href="#DejaVuSans-52" x="55.712891"/>
      <use xlink:href="#DejaVuSans-20" x="125.195312"/>
      <use xlink:href="#DejaVuSans-50" x="156.982422"/>
      <use xlink:href="#DejaVuSans-72" x="215.535156"/>
      <use xlink:href="#DejaVuSans-65" x="254.398438"/>
      <use xlink:href="#DejaVuSans-64" x="315.921875"/>
      <use xlink:href="#DejaVuSans-69" x="379.398438"/>
      <use xlink:href="#DejaVuSans-63" x="407.181641"/>
      <use xlink:href="#DejaVuSans-74" x="462.162109"/>
      <use xlink:href="#DejaVuSans-69" x="501.371094"/>
      <use xlink:href="#DejaVuSans-6f" x="529.154297"/>
      <use xlink:href="#DejaVuSans-6e" x="590.335938"/>
      <use xlink:href="#DejaVuSans-73" x="653.714844"/>
     </g>
    </g>
    <g id="patch_19">
     <path d="M 176.685372 62.05849 
L 198.685372 62.05849 
L 198.685372 54.35849 
L 176.685372 54.35849 
z
" style="fill: #147960"/>
    </g>
    <g id="text_16">
     <!-- LR ATE Scores -->
     <g transform="translate(207.485372 62.05849) scale(0.11 -0.11)">
      <defs>
       <path id="DejaVuSans-41" d="M 2188 4044 
L 1331 1722 
L 3047 1722 
L 2188 4044 
z
M 1831 4666 
L 2547 4666 
L 4325 0 
L 3669 0 
L 3244 1197 
L 1141 1197 
L 716 0 
L 50 0 
L 1831 4666 
z
" transform="scale(0.015625)"/>
       <path id="DejaVuSans-54" d="M -19 4666 
L 3928 4666 
L 3928 4134 
L 2272 4134 
L 2272 0 
L 1638 0 
L 1638 4134 
L -19 4134 
L -19 4666 
z
" transform="scale(0.015625)"/>
       <path id="DejaVuSans-45" d="M 628 4666 
L 3578 4666 
L 3578 4134 
L 1259 4134 
L 1259 2753 
L 3481 2753 
L 3481 2222 
L 1259 2222 
L 1259 531 
L 3634 531 
L 3634 0 
L 628 0 
L 628 4666 
z
" transform="scale(0.015625)"/>
      </defs>
      <use xlink:href="#DejaVuSans-4c"/>
      <use xlink:href="#DejaVuSans-52" x="55.712891"/>
      <use xlink:href="#DejaVuSans-20" x="125.195312"/>
      <use xlink:href="#DejaVuSans-41" x="156.982422"/>
      <use xlink:href="#DejaVuSans-54" x="217.640625"/>
      <use xlink:href="#DejaVuSans-45" x="278.724609"/>
      <use xlink:href="#DejaVuSans-20" x="341.908203"/>
      <use xlink:href="#DejaVuSans-53" x="373.695312"/>
      <use xlink:href="#DejaVuSans-63" x="437.171875"/>
      <use xlink:href="#DejaVuSans-6f" x="492.152344"/>
      <use xlink:href="#DejaVuSans-72" x="553.333984"/>
      <use xlink:href="#DejaVuSans-65" x="592.197266"/>
      <use xlink:href="#DejaVuSans-73" x="653.720703"/>
     </g>
    </g>
   </g>
  </g>
  <g id="axes_2">
   <g id="patch_20">
    <path d="M 337.20335 259.707538 
L 574.113233 259.707538 
L 574.113233 27.654271 
L 337.20335 27.654271 
z
" style="fill: #ffffff"/>
   </g>
   <g id="patch_21">
    <path d="M 347.971981 259.707538 
L 366.700035 259.707538 
L 366.700035 119.36566 
L 347.971981 119.36566 
z
" clip-path="url(#p65cd42ed23)" style="fill: #99ccff"/>
   </g>
   <g id="patch_22">
    <path d="M 394.792116 259.707538 
L 413.52017 259.707538 
L 413.52017 73.934824 
L 394.792116 73.934824 
z
" clip-path="url(#p65cd42ed23)" style="fill: #99ccff"/>
   </g>
   <g id="patch_23">
    <path d="M 441.612251 259.707538 
L 460.340305 259.707538 
L 460.340305 38.704427 
L 441.612251 38.704427 
z
" clip-path="url(#p65cd42ed23)" style="fill: #99ccff"/>
   </g>
   <g id="patch_24">
    <path d="M 488.432386 259.707538 
L 507.16044 259.707538 
L 507.16044 142.105455 
L 488.432386 142.105455 
z
" clip-path="url(#p65cd42ed23)" style="fill: #99ccff"/>
   </g>
   <g id="patch_25">
    <path d="M 535.252521 259.707538 
L 553.980575 259.707538 
L 553.980575 116.59821 
L 535.252521 116.59821 
z
" clip-path="url(#p65cd42ed23)" style="fill: #99ccff"/>
   </g>
   <g id="patch_26">
    <path d="M 357.336008 259.707538 
L 376.064062 259.707538 
L 376.064062 257.088805 
L 357.336008 257.088805 
z
" clip-path="url(#p65cd42ed23)" style="fill: #3399ff"/>
   </g>
   <g id="patch_27">
    <path d="M 404.156143 259.707538 
L 422.884197 259.707538 
L 422.884197 243.641579 
L 404.156143 243.641579 
z
" clip-path="url(#p65cd42ed23)" style="fill: #3399ff"/>
   </g>
   <g id="patch_28">
    <path d="M 450.976278 259.707538 
L 469.704332 259.707538 
L 469.704332 233.173612 
L 450.976278 233.173612 
z
" clip-path="url(#p65cd42ed23)" style="fill: #3399ff"/>
   </g>
   <g id="patch_29">
    <path d="M 497.796413 259.707538 
L 516.524467 259.707538 
L 516.524467 259.542433 
L 497.796413 259.542433 
z
" clip-path="url(#p65cd42ed23)" style="fill: #3399ff"/>
   </g>
   <g id="patch_30">
    <path d="M 544.616548 259.707538 
L 563.344602 259.707538 
L 563.344602 255.991248 
L 544.616548 255.991248 
z
" clip-path="url(#p65cd42ed23)" style="fill: #3399ff"/>
   </g>
   <g id="matplotlib.axis_3">
    <g id="xtick_6">
     <g id="line2d_13">
      <g>
       <use xlink:href="#m679d4df1f5" x="357.336008" y="259.707538" style="stroke: #000000; stroke-width: 0.8"/>
      </g>
     </g>
     <g id="text_17">
      <!-- female -->
      <g transform="translate(338.375617 275.065819) scale(0.11 -0.11)">
       <use xlink:href="#DejaVuSans-66"/>
       <use xlink:href="#DejaVuSans-65" x="35.205078"/>
       <use xlink:href="#DejaVuSans-6d" x="96.728516"/>
       <use xlink:href="#DejaVuSans-61" x="194.140625"/>
       <use xlink:href="#DejaVuSans-6c" x="255.419922"/>
       <use xlink:href="#DejaVuSans-65" x="283.203125"/>
      </g>
     </g>
    </g>
    <g id="xtick_7">
     <g id="line2d_14">
      <g>
       <use xlink:href="#m679d4df1f5" x="404.156143" y="259.707538" style="stroke: #000000; stroke-width: 0.8"/>
      </g>
     </g>
     <g id="text_18">
      <!-- black -->
      <g transform="translate(389.557081 275.065819) scale(0.11 -0.11)">
       <use xlink:href="#DejaVuSans-62"/>
       <use xlink:href="#DejaVuSans-6c" x="63.476562"/>
       <use xlink:href="#DejaVuSans-61" x="91.259766"/>
       <use xlink:href="#DejaVuSans-63" x="152.539062"/>
       <use xlink:href="#DejaVuSans-6b" x="207.519531"/>
      </g>
     </g>
    </g>
    <g id="xtick_8">
     <g id="line2d_15">
      <g>
       <use xlink:href="#m679d4df1f5" x="450.976278" y="259.707538" style="stroke: #000000; stroke-width: 0.8"/>
      </g>
     </g>
     <g id="text_19">
      <!-- gay -->
      <g transform="translate(440.858856 275.065819) scale(0.11 -0.11)">
       <use xlink:href="#DejaVuSans-67"/>
       <use xlink:href="#DejaVuSans-61" x="63.476562"/>
       <use xlink:href="#DejaVuSans-79" x="124.755859"/>
      </g>
     </g>
    </g>
    <g id="xtick_9">
     <g id="line2d_16">
      <g>
       <use xlink:href="#m679d4df1f5" x="497.796413" y="259.707538" style="stroke: #000000; stroke-width: 0.8"/>
      </g>
     </g>
     <g id="text_20">
      <!-- hispanic -->
      <g transform="translate(475.017819 275.065819) scale(0.11 -0.11)">
       <use xlink:href="#DejaVuSans-68"/>
       <use xlink:href="#DejaVuSans-69" x="63.378906"/>
       <use xlink:href="#DejaVuSans-73" x="91.162109"/>
       <use xlink:href="#DejaVuSans-70" x="143.261719"/>
       <use xlink:href="#DejaVuSans-61" x="206.738281"/>
       <use xlink:href="#DejaVuSans-6e" x="268.017578"/>
       <use xlink:href="#DejaVuSans-69" x="331.396484"/>
       <use xlink:href="#DejaVuSans-63" x="359.179688"/>
      </g>
     </g>
    </g>
    <g id="xtick_10">
     <g id="line2d_17">
      <g>
       <use xlink:href="#m679d4df1f5" x="544.616548" y="259.707538" style="stroke: #000000; stroke-width: 0.8"/>
      </g>
     </g>
     <g id="text_21">
      <!-- african -->
      <g transform="translate(525.640688 275.065819) scale(0.11 -0.11)">
       <use xlink:href="#DejaVuSans-61"/>
       <use xlink:href="#DejaVuSans-66" x="61.279297"/>
       <use xlink:href="#DejaVuSans-72" x="96.484375"/>
       <use xlink:href="#DejaVuSans-69" x="137.597656"/>
       <use xlink:href="#DejaVuSans-63" x="165.380859"/>
       <use xlink:href="#DejaVuSans-61" x="220.361328"/>
       <use xlink:href="#DejaVuSans-6e" x="281.640625"/>
      </g>
     </g>
    </g>
   </g>
   <g id="matplotlib.axis_4">
    <g id="ytick_8">
     <g id="line2d_18">
      <g>
       <use xlink:href="#ma054d9dd97" x="337.20335" y="259.707538" style="stroke: #000000; stroke-width: 0.8"/>
      </g>
     </g>
     <g id="text_22">
      <!-- 0.0 -->
      <g transform="translate(312.709913 263.886678) scale(0.11 -0.11)">
       <use xlink:href="#DejaVuSans-30"/>
       <use xlink:href="#DejaVuSans-2e" x="63.623047"/>
       <use xlink:href="#DejaVuSans-30" x="95.410156"/>
      </g>
     </g>
    </g>
    <g id="ytick_9">
     <g id="line2d_19">
      <g>
       <use xlink:href="#ma054d9dd97" x="337.20335" y="218.738625" style="stroke: #000000; stroke-width: 0.8"/>
      </g>
     </g>
     <g id="text_23">
      <!-- 0.1 -->
      <g transform="translate(312.709913 222.917766) scale(0.11 -0.11)">
       <use xlink:href="#DejaVuSans-30"/>
       <use xlink:href="#DejaVuSans-2e" x="63.623047"/>
       <use xlink:href="#DejaVuSans-31" x="95.410156"/>
      </g>
     </g>
    </g>
    <g id="ytick_10">
     <g id="line2d_20">
      <g>
       <use xlink:href="#ma054d9dd97" x="337.20335" y="177.769713" style="stroke: #000000; stroke-width: 0.8"/>
      </g>
     </g>
     <g id="text_24">
      <!-- 0.2 -->
      <g transform="translate(312.709913 181.948853) scale(0.11 -0.11)">
       <use xlink:href="#DejaVuSans-30"/>
       <use xlink:href="#DejaVuSans-2e" x="63.623047"/>
       <use xlink:href="#DejaVuSans-32" x="95.410156"/>
      </g>
     </g>
    </g>
    <g id="ytick_11">
     <g id="line2d_21">
      <g>
       <use xlink:href="#ma054d9dd97" x="337.20335" y="136.8008" style="stroke: #000000; stroke-width: 0.8"/>
      </g>
     </g>
     <g id="text_25">
      <!-- 0.3 -->
      <g transform="translate(312.709913 140.979941) scale(0.11 -0.11)">
       <use xlink:href="#DejaVuSans-30"/>
       <use xlink:href="#DejaVuSans-2e" x="63.623047"/>
       <use xlink:href="#DejaVuSans-33" x="95.410156"/>
      </g>
     </g>
    </g>
    <g id="ytick_12">
     <g id="line2d_22">
      <g>
       <use xlink:href="#ma054d9dd97" x="337.20335" y="95.831888" style="stroke: #000000; stroke-width: 0.8"/>
      </g>
     </g>
     <g id="text_26">
      <!-- 0.4 -->
      <g transform="translate(312.709913 100.011029) scale(0.11 -0.11)">
       <defs>
        <path id="DejaVuSans-34" d="M 2419 4116 
L 825 1625 
L 2419 1625 
L 2419 4116 
z
M 2253 4666 
L 3047 4666 
L 3047 1625 
L 3713 1625 
L 3713 1100 
L 3047 1100 
L 3047 0 
L 2419 0 
L 2419 1100 
L 313 1100 
L 313 1709 
L 2253 4666 
z
" transform="scale(0.015625)"/>
       </defs>
       <use xlink:href="#DejaVuSans-30"/>
       <use xlink:href="#DejaVuSans-2e" x="63.623047"/>
       <use xlink:href="#DejaVuSans-34" x="95.410156"/>
      </g>
     </g>
    </g>
    <g id="ytick_13">
     <g id="line2d_23">
      <g>
       <use xlink:href="#ma054d9dd97" x="337.20335" y="54.862976" style="stroke: #000000; stroke-width: 0.8"/>
      </g>
     </g>
     <g id="text_27">
      <!-- 0.5 -->
      <g transform="translate(312.709913 59.042116) scale(0.11 -0.11)">
       <use xlink:href="#DejaVuSans-30"/>
       <use xlink:href="#DejaVuSans-2e" x="63.623047"/>
       <use xlink:href="#DejaVuSans-35" x="95.410156"/>
      </g>
     </g>
    </g>
   </g>
   <g id="patch_31">
    <path d="M 337.20335 259.707538 
L 337.20335 27.654271 
" style="fill: none; stroke: #000000; stroke-width: 0.8; stroke-linejoin: miter; stroke-linecap: square"/>
   </g>
   <g id="patch_32">
    <path d="M 574.113233 259.707538 
L 574.113233 27.654271 
" style="fill: none; stroke: #000000; stroke-width: 0.8; stroke-linejoin: miter; stroke-linecap: square"/>
   </g>
   <g id="patch_33">
    <path d="M 337.20335 259.707538 
L 574.113233 259.707538 
" style="fill: none; stroke: #000000; stroke-width: 0.8; stroke-linejoin: miter; stroke-linecap: square"/>
   </g>
   <g id="patch_34">
    <path d="M 337.20335 27.654271 
L 574.113233 27.654271 
" style="fill: none; stroke: #000000; stroke-width: 0.8; stroke-linejoin: miter; stroke-linecap: square"/>
   </g>
   <g id="text_28">
    <!-- Decision Tree -->
    <g transform="translate(409.054698 21.654271) scale(0.14 -0.14)">
     <defs>
      <path id="DejaVuSans-44" d="M 1259 4147 
L 1259 519 
L 2022 519 
Q 2988 519 3436 956 
Q 3884 1394 3884 2338 
Q 3884 3275 3436 3711 
Q 2988 4147 2022 4147 
L 1259 4147 
z
M 628 4666 
L 1925 4666 
Q 3281 4666 3915 4102 
Q 4550 3538 4550 2338 
Q 4550 1131 3912 565 
Q 3275 0 1925 0 
L 628 0 
L 628 4666 
z
" transform="scale(0.015625)"/>
     </defs>
     <use xlink:href="#DejaVuSans-44"/>
     <use xlink:href="#DejaVuSans-65" x="77.001953"/>
     <use xlink:href="#DejaVuSans-63" x="138.525391"/>
     <use xlink:href="#DejaVuSans-69" x="193.505859"/>
     <use xlink:href="#DejaVuSans-73" x="221.289062"/>
     <use xlink:href="#DejaVuSans-69" x="273.388672"/>
     <use xlink:href="#DejaVuSans-6f" x="301.171875"/>
     <use xlink:href="#DejaVuSans-6e" x="362.353516"/>
     <use xlink:href="#DejaVuSans-20" x="425.732422"/>
     <use xlink:href="#DejaVuSans-54" x="457.519531"/>
     <use xlink:href="#DejaVuSans-72" x="503.853516"/>
     <use xlink:href="#DejaVuSans-65" x="542.716797"/>
     <use xlink:href="#DejaVuSans-65" x="604.240234"/>
    </g>
   </g>
   <g id="legend_2">
    <g id="patch_35">
     <path d="M 394.110264 68.746146 
L 566.413233 68.746146 
Q 568.613233 68.746146 568.613233 66.546146 
L 568.613233 35.354271 
Q 568.613233 33.154271 566.413233 33.154271 
L 394.110264 33.154271 
Q 391.910264 33.154271 391.910264 35.354271 
L 391.910264 66.546146 
Q 391.910264 68.746146 394.110264 68.746146 
z
" style="fill: #ffffff; opacity: 0.8; stroke: #cccccc; stroke-linejoin: miter"/>
    </g>
    <g id="patch_36">
     <path d="M 396.310264 45.912553 
L 418.310264 45.912553 
L 418.310264 38.212553 
L 396.310264 38.212553 
z
" style="fill: #99ccff"/>
    </g>
    <g id="text_29">
     <!-- Decision Tree Predictions -->
     <g transform="translate(427.110264 45.912553) scale(0.11 -0.11)">
      <use xlink:href="#DejaVuSans-44"/>
      <use xlink:href="#DejaVuSans-65" x="77.001953"/>
      <use xlink:href="#DejaVuSans-63" x="138.525391"/>
      <use xlink:href="#DejaVuSans-69" x="193.505859"/>
      <use xlink:href="#DejaVuSans-73" x="221.289062"/>
      <use xlink:href="#DejaVuSans-69" x="273.388672"/>
      <use xlink:href="#DejaVuSans-6f" x="301.171875"/>
      <use xlink:href="#DejaVuSans-6e" x="362.353516"/>
      <use xlink:href="#DejaVuSans-20" x="425.732422"/>
      <use xlink:href="#DejaVuSans-54" x="457.519531"/>
      <use xlink:href="#DejaVuSans-72" x="503.853516"/>
      <use xlink:href="#DejaVuSans-65" x="542.716797"/>
      <use xlink:href="#DejaVuSans-65" x="604.240234"/>
      <use xlink:href="#DejaVuSans-20" x="665.763672"/>
      <use xlink:href="#DejaVuSans-50" x="697.550781"/>
      <use xlink:href="#DejaVuSans-72" x="756.103516"/>
      <use xlink:href="#DejaVuSans-65" x="794.966797"/>
      <use xlink:href="#DejaVuSans-64" x="856.490234"/>
      <use xlink:href="#DejaVuSans-69" x="919.966797"/>
      <use xlink:href="#DejaVuSans-63" x="947.75"/>
      <use xlink:href="#DejaVuSans-74" x="1002.730469"/>
      <use xlink:href="#DejaVuSans-69" x="1041.939453"/>
      <use xlink:href="#DejaVuSans-6f" x="1069.722656"/>
      <use xlink:href="#DejaVuSans-6e" x="1130.904297"/>
      <use xlink:href="#DejaVuSans-73" x="1194.283203"/>
     </g>
    </g>
    <g id="patch_37">
     <path d="M 396.310264 62.05849 
L 418.310264 62.05849 
L 418.310264 54.35849 
L 396.310264 54.35849 
z
" style="fill: #3399ff"/>
    </g>
    <g id="text_30">
     <!-- Decision Tree ATE Scores -->
     <g transform="translate(427.110264 62.05849) scale(0.11 -0.11)">
      <use xlink:href="#DejaVuSans-44"/>
      <use xlink:href="#DejaVuSans-65" x="77.001953"/>
      <use xlink:href="#DejaVuSans-63" x="138.525391"/>
      <use xlink:href="#DejaVuSans-69" x="193.505859"/>
      <use xlink:href="#DejaVuSans-73" x="221.289062"/>
      <use xlink:href="#DejaVuSans-69" x="273.388672"/>
      <use xlink:href="#DejaVuSans-6f" x="301.171875"/>
      <use xlink:href="#DejaVuSans-6e" x="362.353516"/>
      <use xlink:href="#DejaVuSans-20" x="425.732422"/>
      <use xlink:href="#DejaVuSans-54" x="457.519531"/>
      <use xlink:href="#DejaVuSans-72" x="503.853516"/>
      <use xlink:href="#DejaVuSans-65" x="542.716797"/>
      <use xlink:href="#DejaVuSans-65" x="604.240234"/>
      <use xlink:href="#DejaVuSans-20" x="665.763672"/>
      <use xlink:href="#DejaVuSans-41" x="697.550781"/>
      <use xlink:href="#DejaVuSans-54" x="758.208984"/>
      <use xlink:href="#DejaVuSans-45" x="819.292969"/>
      <use xlink:href="#DejaVuSans-20" x="882.476562"/>
      <use xlink:href="#DejaVuSans-53" x="914.263672"/>
      <use xlink:href="#DejaVuSans-63" x="977.740234"/>
      <use xlink:href="#DejaVuSans-6f" x="1032.720703"/>
      <use xlink:href="#DejaVuSans-72" x="1093.902344"/>
      <use xlink:href="#DejaVuSans-65" x="1132.765625"/>
      <use xlink:href="#DejaVuSans-73" x="1194.289062"/>
     </g>
    </g>
   </g>
  </g>
  <g id="axes_3">
   <g id="patch_38">
    <path d="M 616.290117 259.707538 
L 853.2 259.707538 
L 853.2 27.654271 
L 616.290117 27.654271 
z
" style="fill: #ffffff"/>
   </g>
   <g id="patch_39">
    <path d="M 627.058748 259.707538 
L 645.786802 259.707538 
L 645.786802 38.704427 
L 627.058748 38.704427 
z
" clip-path="url(#pd2d2779b14)" style="fill: #ffb6c1"/>
   </g>
   <g id="patch_40">
    <path d="M 673.878883 259.707538 
L 692.606937 259.707538 
L 692.606937 84.375841 
L 673.878883 84.375841 
z
" clip-path="url(#pd2d2779b14)" style="fill: #ffb6c1"/>
   </g>
   <g id="patch_41">
    <path d="M 720.699018 259.707538 
L 739.427072 259.707538 
L 739.427072 85.924147 
L 720.699018 85.924147 
z
" clip-path="url(#pd2d2779b14)" style="fill: #ffb6c1"/>
   </g>
   <g id="patch_42">
    <path d="M 767.519153 259.707538 
L 786.247207 259.707538 
L 786.247207 79.161703 
L 767.519153 79.161703 
z
" clip-path="url(#pd2d2779b14)" style="fill: #ffb6c1"/>
   </g>
   <g id="patch_43">
    <path d="M 814.339288 259.707538 
L 833.067342 259.707538 
L 833.067342 96.826554 
L 814.339288 96.826554 
z
" clip-path="url(#pd2d2779b14)" style="fill: #ffb6c1"/>
   </g>
   <g id="patch_44">
    <path d="M 636.422775 259.707538 
L 655.150829 259.707538 
L 655.150829 208.346542 
L 636.422775 208.346542 
z
" clip-path="url(#pd2d2779b14)" style="fill: #ff69b4"/>
   </g>
   <g id="patch_45">
    <path d="M 683.24291 259.707538 
L 701.970964 259.707538 
L 701.970964 242.336478 
L 683.24291 242.336478 
z
" clip-path="url(#pd2d2779b14)" style="fill: #ff69b4"/>
   </g>
   <g id="patch_46">
    <path d="M 730.063045 259.707538 
L 748.791099 259.707538 
L 748.791099 242.194828 
L 730.063045 242.194828 
z
" clip-path="url(#pd2d2779b14)" style="fill: #ff69b4"/>
   </g>
   <g id="patch_47">
    <path d="M 776.88318 259.707538 
L 795.611234 259.707538 
L 795.611234 242.598791 
L 776.88318 242.598791 
z
" clip-path="url(#pd2d2779b14)" style="fill: #ff69b4"/>
   </g>
   <g id="patch_48">
    <path d="M 823.703315 259.707538 
L 842.431369 259.707538 
L 842.431369 245.520309 
L 823.703315 245.520309 
z
" clip-path="url(#pd2d2779b14)" style="fill: #ff69b4"/>
   </g>
   <g id="matplotlib.axis_5">
    <g id="xtick_11">
     <g id="line2d_24">
      <g>
       <use xlink:href="#m679d4df1f5" x="636.422775" y="259.707538" style="stroke: #000000; stroke-width: 0.8"/>
      </g>
     </g>
     <g id="text_31">
      <!-- female -->
      <g transform="translate(617.462385 275.065819) scale(0.11 -0.11)">
       <use xlink:href="#DejaVuSans-66"/>
       <use xlink:href="#DejaVuSans-65" x="35.205078"/>
       <use xlink:href="#DejaVuSans-6d" x="96.728516"/>
       <use xlink:href="#DejaVuSans-61" x="194.140625"/>
       <use xlink:href="#DejaVuSans-6c" x="255.419922"/>
       <use xlink:href="#DejaVuSans-65" x="283.203125"/>
      </g>
     </g>
    </g>
    <g id="xtick_12">
     <g id="line2d_25">
      <g>
       <use xlink:href="#m679d4df1f5" x="683.24291" y="259.707538" style="stroke: #000000; stroke-width: 0.8"/>
      </g>
     </g>
     <g id="text_32">
      <!-- black -->
      <g transform="translate(668.643848 275.065819) scale(0.11 -0.11)">
       <use xlink:href="#DejaVuSans-62"/>
       <use xlink:href="#DejaVuSans-6c" x="63.476562"/>
       <use xlink:href="#DejaVuSans-61" x="91.259766"/>
       <use xlink:href="#DejaVuSans-63" x="152.539062"/>
       <use xlink:href="#DejaVuSans-6b" x="207.519531"/>
      </g>
     </g>
    </g>
    <g id="xtick_13">
     <g id="line2d_26">
      <g>
       <use xlink:href="#m679d4df1f5" x="730.063045" y="259.707538" style="stroke: #000000; stroke-width: 0.8"/>
      </g>
     </g>
     <g id="text_33">
      <!-- gay -->
      <g transform="translate(719.945623 275.065819) scale(0.11 -0.11)">
       <use xlink:href="#DejaVuSans-67"/>
       <use xlink:href="#DejaVuSans-61" x="63.476562"/>
       <use xlink:href="#DejaVuSans-79" x="124.755859"/>
      </g>
     </g>
    </g>
    <g id="xtick_14">
     <g id="line2d_27">
      <g>
       <use xlink:href="#m679d4df1f5" x="776.88318" y="259.707538" style="stroke: #000000; stroke-width: 0.8"/>
      </g>
     </g>
     <g id="text_34">
      <!-- hispanic -->
      <g transform="translate(754.104586 275.065819) scale(0.11 -0.11)">
       <use xlink:href="#DejaVuSans-68"/>
       <use xlink:href="#DejaVuSans-69" x="63.378906"/>
       <use xlink:href="#DejaVuSans-73" x="91.162109"/>
       <use xlink:href="#DejaVuSans-70" x="143.261719"/>
       <use xlink:href="#DejaVuSans-61" x="206.738281"/>
       <use xlink:href="#DejaVuSans-6e" x="268.017578"/>
       <use xlink:href="#DejaVuSans-69" x="331.396484"/>
       <use xlink:href="#DejaVuSans-63" x="359.179688"/>
      </g>
     </g>
    </g>
    <g id="xtick_15">
     <g id="line2d_28">
      <g>
       <use xlink:href="#m679d4df1f5" x="823.703315" y="259.707538" style="stroke: #000000; stroke-width: 0.8"/>
      </g>
     </g>
     <g id="text_35">
      <!-- african -->
      <g transform="translate(804.727456 275.065819) scale(0.11 -0.11)">
       <use xlink:href="#DejaVuSans-61"/>
       <use xlink:href="#DejaVuSans-66" x="61.279297"/>
       <use xlink:href="#DejaVuSans-72" x="96.484375"/>
       <use xlink:href="#DejaVuSans-69" x="137.597656"/>
       <use xlink:href="#DejaVuSans-63" x="165.380859"/>
       <use xlink:href="#DejaVuSans-61" x="220.361328"/>
       <use xlink:href="#DejaVuSans-6e" x="281.640625"/>
      </g>
     </g>
    </g>
   </g>
   <g id="matplotlib.axis_6">
    <g id="ytick_14">
     <g id="line2d_29">
      <g>
       <use xlink:href="#ma054d9dd97" x="616.290117" y="259.707538" style="stroke: #000000; stroke-width: 0.8"/>
      </g>
     </g>
     <g id="text_36">
      <!-- 0.00 -->
      <g transform="translate(584.79793 263.886678) scale(0.11 -0.11)">
       <use xlink:href="#DejaVuSans-30"/>
       <use xlink:href="#DejaVuSans-2e" x="63.623047"/>
       <use xlink:href="#DejaVuSans-30" x="95.410156"/>
       <use xlink:href="#DejaVuSans-30" x="159.033203"/>
      </g>
     </g>
    </g>
    <g id="ytick_15">
     <g id="line2d_30">
      <g>
       <use xlink:href="#ma054d9dd97" x="616.290117" y="226.918342" style="stroke: #000000; stroke-width: 0.8"/>
      </g>
     </g>
     <g id="text_37">
      <!-- 0.05 -->
      <g transform="translate(584.79793 231.097483) scale(0.11 -0.11)">
       <use xlink:href="#DejaVuSans-30"/>
       <use xlink:href="#DejaVuSans-2e" x="63.623047"/>
       <use xlink:href="#DejaVuSans-30" x="95.410156"/>
       <use xlink:href="#DejaVuSans-35" x="159.033203"/>
      </g>
     </g>
    </g>
    <g id="ytick_16">
     <g id="line2d_31">
      <g>
       <use xlink:href="#ma054d9dd97" x="616.290117" y="194.129147" style="stroke: #000000; stroke-width: 0.8"/>
      </g>
     </g>
     <g id="text_38">
      <!-- 0.10 -->
      <g transform="translate(584.79793 198.308288) scale(0.11 -0.11)">
       <use xlink:href="#DejaVuSans-30"/>
       <use xlink:href="#DejaVuSans-2e" x="63.623047"/>
       <use xlink:href="#DejaVuSans-31" x="95.410156"/>
       <use xlink:href="#DejaVuSans-30" x="159.033203"/>
      </g>
     </g>
    </g>
    <g id="ytick_17">
     <g id="line2d_32">
      <g>
       <use xlink:href="#ma054d9dd97" x="616.290117" y="161.339952" style="stroke: #000000; stroke-width: 0.8"/>
      </g>
     </g>
     <g id="text_39">
      <!-- 0.15 -->
      <g transform="translate(584.79793 165.519093) scale(0.11 -0.11)">
       <use xlink:href="#DejaVuSans-30"/>
       <use xlink:href="#DejaVuSans-2e" x="63.623047"/>
       <use xlink:href="#DejaVuSans-31" x="95.410156"/>
       <use xlink:href="#DejaVuSans-35" x="159.033203"/>
      </g>
     </g>
    </g>
    <g id="ytick_18">
     <g id="line2d_33">
      <g>
       <use xlink:href="#ma054d9dd97" x="616.290117" y="128.550757" style="stroke: #000000; stroke-width: 0.8"/>
      </g>
     </g>
     <g id="text_40">
      <!-- 0.20 -->
      <g transform="translate(584.79793 132.729897) scale(0.11 -0.11)">
       <use xlink:href="#DejaVuSans-30"/>
       <use xlink:href="#DejaVuSans-2e" x="63.623047"/>
       <use xlink:href="#DejaVuSans-32" x="95.410156"/>
       <use xlink:href="#DejaVuSans-30" x="159.033203"/>
      </g>
     </g>
    </g>
    <g id="ytick_19">
     <g id="line2d_34">
      <g>
       <use xlink:href="#ma054d9dd97" x="616.290117" y="95.761561" style="stroke: #000000; stroke-width: 0.8"/>
      </g>
     </g>
     <g id="text_41">
      <!-- 0.25 -->
      <g transform="translate(584.79793 99.940702) scale(0.11 -0.11)">
       <use xlink:href="#DejaVuSans-30"/>
       <use xlink:href="#DejaVuSans-2e" x="63.623047"/>
       <use xlink:href="#DejaVuSans-32" x="95.410156"/>
       <use xlink:href="#DejaVuSans-35" x="159.033203"/>
      </g>
     </g>
    </g>
    <g id="ytick_20">
     <g id="line2d_35">
      <g>
       <use xlink:href="#ma054d9dd97" x="616.290117" y="62.972366" style="stroke: #000000; stroke-width: 0.8"/>
      </g>
     </g>
     <g id="text_42">
      <!-- 0.30 -->
      <g transform="translate(584.79793 67.151507) scale(0.11 -0.11)">
       <use xlink:href="#DejaVuSans-30"/>
       <use xlink:href="#DejaVuSans-2e" x="63.623047"/>
       <use xlink:href="#DejaVuSans-33" x="95.410156"/>
       <use xlink:href="#DejaVuSans-30" x="159.033203"/>
      </g>
     </g>
    </g>
    <g id="ytick_21">
     <g id="line2d_36">
      <g>
       <use xlink:href="#ma054d9dd97" x="616.290117" y="30.183171" style="stroke: #000000; stroke-width: 0.8"/>
      </g>
     </g>
     <g id="text_43">
      <!-- 0.35 -->
      <g transform="translate(584.79793 34.362311) scale(0.11 -0.11)">
       <use xlink:href="#DejaVuSans-30"/>
       <use xlink:href="#DejaVuSans-2e" x="63.623047"/>
       <use xlink:href="#DejaVuSans-33" x="95.410156"/>
       <use xlink:href="#DejaVuSans-35" x="159.033203"/>
      </g>
     </g>
    </g>
   </g>
   <g id="patch_49">
    <path d="M 616.290117 259.707538 
L 616.290117 27.654271 
" style="fill: none; stroke: #000000; stroke-width: 0.8; stroke-linejoin: miter; stroke-linecap: square"/>
   </g>
   <g id="patch_50">
    <path d="M 853.2 259.707538 
L 853.2 27.654271 
" style="fill: none; stroke: #000000; stroke-width: 0.8; stroke-linejoin: miter; stroke-linecap: square"/>
   </g>
   <g id="patch_51">
    <path d="M 616.290117 259.707538 
L 853.2 259.707538 
" style="fill: none; stroke: #000000; stroke-width: 0.8; stroke-linejoin: miter; stroke-linecap: square"/>
   </g>
   <g id="patch_52">
    <path d="M 616.290117 27.654271 
L 853.2 27.654271 
" style="fill: none; stroke: #000000; stroke-width: 0.8; stroke-linejoin: miter; stroke-linecap: square"/>
   </g>
   <g id="text_44">
    <!-- Support Vector Machine (SVM) -->
    <g transform="translate(628.054121 21.654271) scale(0.14 -0.14)">
     <defs>
      <path id="DejaVuSans-75" d="M 544 1381 
L 544 3500 
L 1119 3500 
L 1119 1403 
Q 1119 906 1312 657 
Q 1506 409 1894 409 
Q 2359 409 2629 706 
Q 2900 1003 2900 1516 
L 2900 3500 
L 3475 3500 
L 3475 0 
L 2900 0 
L 2900 538 
Q 2691 219 2414 64 
Q 2138 -91 1772 -91 
Q 1169 -91 856 284 
Q 544 659 544 1381 
z
M 1991 3584 
L 1991 3584 
z
" transform="scale(0.015625)"/>
      <path id="DejaVuSans-56" d="M 1831 0 
L 50 4666 
L 709 4666 
L 2188 738 
L 3669 4666 
L 4325 4666 
L 2547 0 
L 1831 0 
z
" transform="scale(0.015625)"/>
      <path id="DejaVuSans-4d" d="M 628 4666 
L 1569 4666 
L 2759 1491 
L 3956 4666 
L 4897 4666 
L 4897 0 
L 4281 0 
L 4281 4097 
L 3078 897 
L 2444 897 
L 1241 4097 
L 1241 0 
L 628 0 
L 628 4666 
z
" transform="scale(0.015625)"/>
      <path id="DejaVuSans-28" d="M 1984 4856 
Q 1566 4138 1362 3434 
Q 1159 2731 1159 2009 
Q 1159 1288 1364 580 
Q 1569 -128 1984 -844 
L 1484 -844 
Q 1016 -109 783 600 
Q 550 1309 550 2009 
Q 550 2706 781 3412 
Q 1013 4119 1484 4856 
L 1984 4856 
z
" transform="scale(0.015625)"/>
      <path id="DejaVuSans-29" d="M 513 4856 
L 1013 4856 
Q 1481 4119 1714 3412 
Q 1947 2706 1947 2009 
Q 1947 1309 1714 600 
Q 1481 -109 1013 -844 
L 513 -844 
Q 928 -128 1133 580 
Q 1338 1288 1338 2009 
Q 1338 2731 1133 3434 
Q 928 4138 513 4856 
z
" transform="scale(0.015625)"/>
     </defs>
     <use xlink:href="#DejaVuSans-53"/>
     <use xlink:href="#DejaVuSans-75" x="63.476562"/>
     <use xlink:href="#DejaVuSans-70" x="126.855469"/>
     <use xlink:href="#DejaVuSans-70" x="190.332031"/>
     <use xlink:href="#DejaVuSans-6f" x="253.808594"/>
     <use xlink:href="#DejaVuSans-72" x="314.990234"/>
     <use xlink:href="#DejaVuSans-74" x="356.103516"/>
     <use xlink:href="#DejaVuSans-20" x="395.3125"/>
     <use xlink:href="#DejaVuSans-56" x="427.099609"/>
     <use xlink:href="#DejaVuSans-65" x="487.757812"/>
     <use xlink:href="#DejaVuSans-63" x="549.28125"/>
     <use xlink:href="#DejaVuSans-74" x="604.261719"/>
     <use xlink:href="#DejaVuSans-6f" x="643.470703"/>
     <use xlink:href="#DejaVuSans-72" x="704.652344"/>
     <use xlink:href="#DejaVuSans-20" x="745.765625"/>
     <use xlink:href="#DejaVuSans-4d" x="777.552734"/>
     <use xlink:href="#DejaVuSans-61" x="863.832031"/>
     <use xlink:href="#DejaVuSans-63" x="925.111328"/>
     <use xlink:href="#DejaVuSans-68" x="980.091797"/>
     <use xlink:href="#DejaVuSans-69" x="1043.470703"/>
     <use xlink:href="#DejaVuSans-6e" x="1071.253906"/>
     <use xlink:href="#DejaVuSans-65" x="1134.632812"/>
     <use xlink:href="#DejaVuSans-20" x="1196.15625"/>
     <use xlink:href="#DejaVuSans-28" x="1227.943359"/>
     <use xlink:href="#DejaVuSans-53" x="1266.957031"/>
     <use xlink:href="#DejaVuSans-56" x="1330.433594"/>
     <use xlink:href="#DejaVuSans-4d" x="1398.841797"/>
     <use xlink:href="#DejaVuSans-29" x="1485.121094"/>
    </g>
   </g>
   <g id="legend_3">
    <g id="patch_53">
     <path d="M 722.432344 68.746146 
L 845.5 68.746146 
Q 847.7 68.746146 847.7 66.546146 
L 847.7 35.354271 
Q 847.7 33.154271 845.5 33.154271 
L 722.432344 33.154271 
Q 720.232344 33.154271 720.232344 35.354271 
L 720.232344 66.546146 
Q 720.232344 68.746146 722.432344 68.746146 
z
" style="fill: #ffffff; opacity: 0.8; stroke: #cccccc; stroke-linejoin: miter"/>
    </g>
    <g id="patch_54">
     <path d="M 724.632344 45.912553 
L 746.632344 45.912553 
L 746.632344 38.212553 
L 724.632344 38.212553 
z
" style="fill: #ffb6c1"/>
    </g>
    <g id="text_45">
     <!-- SVM Predictions -->
     <g transform="translate(755.432344 45.912553) scale(0.11 -0.11)">
      <use xlink:href="#DejaVuSans-53"/>
      <use xlink:href="#DejaVuSans-56" x="63.476562"/>
      <use xlink:href="#DejaVuSans-4d" x="131.884766"/>
      <use xlink:href="#DejaVuSans-20" x="218.164062"/>
      <use xlink:href="#DejaVuSans-50" x="249.951172"/>
      <use xlink:href="#DejaVuSans-72" x="308.503906"/>
      <use xlink:href="#DejaVuSans-65" x="347.367188"/>
      <use xlink:href="#DejaVuSans-64" x="408.890625"/>
      <use xlink:href="#DejaVuSans-69" x="472.367188"/>
      <use xlink:href="#DejaVuSans-63" x="500.150391"/>
      <use xlink:href="#DejaVuSans-74" x="555.130859"/>
      <use xlink:href="#DejaVuSans-69" x="594.339844"/>
      <use xlink:href="#DejaVuSans-6f" x="622.123047"/>
      <use xlink:href="#DejaVuSans-6e" x="683.304688"/>
      <use xlink:href="#DejaVuSans-73" x="746.683594"/>
     </g>
    </g>
    <g id="patch_55">
     <path d="M 724.632344 62.05849 
L 746.632344 62.05849 
L 746.632344 54.35849 
L 724.632344 54.35849 
z
" style="fill: #ff69b4"/>
    </g>
    <g id="text_46">
     <!-- SVM ATE Scores -->
     <g transform="translate(755.432344 62.05849) scale(0.11 -0.11)">
      <use xlink:href="#DejaVuSans-53"/>
      <use xlink:href="#DejaVuSans-56" x="63.476562"/>
      <use xlink:href="#DejaVuSans-4d" x="131.884766"/>
      <use xlink:href="#DejaVuSans-20" x="218.164062"/>
      <use xlink:href="#DejaVuSans-41" x="249.951172"/>
      <use xlink:href="#DejaVuSans-54" x="310.609375"/>
      <use xlink:href="#DejaVuSans-45" x="371.693359"/>
      <use xlink:href="#DejaVuSans-20" x="434.876953"/>
      <use xlink:href="#DejaVuSans-53" x="466.664062"/>
      <use xlink:href="#DejaVuSans-63" x="530.140625"/>
      <use xlink:href="#DejaVuSans-6f" x="585.121094"/>
      <use xlink:href="#DejaVuSans-72" x="646.302734"/>
      <use xlink:href="#DejaVuSans-65" x="685.166016"/>
      <use xlink:href="#DejaVuSans-73" x="746.689453"/>
     </g>
    </g>
   </g>
  </g>
 </g>
 <defs>
  <clipPath id="p9aeab121c9">
   <rect x="58.116583" y="27.654271" width="236.909883" height="232.053266"/>
  </clipPath>
  <clipPath id="p65cd42ed23">
   <rect x="337.20335" y="27.654271" width="236.909883" height="232.053266"/>
  </clipPath>
  <clipPath id="pd2d2779b14">
   <rect x="616.290117" y="27.654271" width="236.909883" height="232.053266"/>
  </clipPath>
 </defs>
</svg>
